<mxfile host="app.diagrams.net" modified="2021-09-29T14:40:50.162Z" agent="5.0 (Windows)" etag="dLym8B_CqCSGlnFxP4yo" version="15.3.8" type="github">
  <diagram id="C5RBs43oDa-KdzZeNtuy" name="Page-1">
    <mxGraphModel dx="1038" dy="575" grid="1" gridSize="10" guides="1" tooltips="1" connect="1" arrows="1" fold="1" page="1" pageScale="1" pageWidth="827" pageHeight="1169" math="0" shadow="0">
      <root>
        <mxCell id="WIyWlLk6GJQsqaUBKTNV-0" />
        <mxCell id="WIyWlLk6GJQsqaUBKTNV-1" parent="WIyWlLk6GJQsqaUBKTNV-0" />
        <mxCell id="b51wquPNlFclY3lklrmw-19" value="" style="edgeStyle=orthogonalEdgeStyle;rounded=0;orthogonalLoop=1;jettySize=auto;html=1;entryX=0.5;entryY=0;entryDx=0;entryDy=0;" edge="1" parent="WIyWlLk6GJQsqaUBKTNV-1" target="b51wquPNlFclY3lklrmw-15">
          <mxGeometry relative="1" as="geometry">
            <mxPoint x="139" y="150" as="sourcePoint" />
            <mxPoint x="219" y="270" as="targetPoint" />
            <Array as="points">
              <mxPoint x="179" y="150" />
              <mxPoint x="179" y="250" />
              <mxPoint x="119" y="250" />
            </Array>
          </mxGeometry>
        </mxCell>
        <mxCell id="b51wquPNlFclY3lklrmw-14" value="Directeur général" style="shape=umlActor;verticalLabelPosition=bottom;verticalAlign=top;html=1;shadow=0;sketch=0;strokeWidth=2;fillColor=#f8cecc;strokeColor=#b85450;" vertex="1" parent="WIyWlLk6GJQsqaUBKTNV-1">
          <mxGeometry x="99" y="110" width="40" height="80" as="geometry" />
        </mxCell>
        <mxCell id="b51wquPNlFclY3lklrmw-15" value="&lt;div&gt;• accès hyper admin&lt;br&gt;&lt;/div&gt;&lt;div&gt;• accès admin&lt;/div&gt;&lt;div&gt;• accès production&lt;br&gt;&lt;/div&gt;" style="ellipse;whiteSpace=wrap;html=1;shadow=0;sketch=0;strokeWidth=2;" vertex="1" parent="WIyWlLk6GJQsqaUBKTNV-1">
          <mxGeometry x="39" y="270" width="161" height="80" as="geometry" />
        </mxCell>
        <mxCell id="b51wquPNlFclY3lklrmw-20" value="" style="edgeStyle=orthogonalEdgeStyle;rounded=0;orthogonalLoop=1;jettySize=auto;html=1;entryX=0.5;entryY=0;entryDx=0;entryDy=0;startArrow=none;" edge="1" parent="WIyWlLk6GJQsqaUBKTNV-1" target="b51wquPNlFclY3lklrmw-22">
          <mxGeometry relative="1" as="geometry">
            <mxPoint x="380" y="225" as="sourcePoint" />
            <mxPoint x="420" y="270" as="targetPoint" />
            <Array as="points">
              <mxPoint x="380" y="150" />
              <mxPoint x="380" y="250" />
              <mxPoint x="320" y="250" />
            </Array>
          </mxGeometry>
        </mxCell>
        <mxCell id="b51wquPNlFclY3lklrmw-21" value="PDG" style="shape=umlActor;verticalLabelPosition=bottom;verticalAlign=top;html=1;shadow=0;sketch=0;strokeWidth=2;fillColor=#fff2cc;strokeColor=#d6b656;" vertex="1" parent="WIyWlLk6GJQsqaUBKTNV-1">
          <mxGeometry x="300" y="110" width="40" height="80" as="geometry" />
        </mxCell>
        <mxCell id="b51wquPNlFclY3lklrmw-22" value="&lt;div&gt;• accès admin&lt;/div&gt;&lt;div&gt;• direction de l&#39;équipe dev&lt;br&gt;&lt;/div&gt;&lt;div&gt;• accès production&lt;/div&gt;" style="ellipse;whiteSpace=wrap;html=1;shadow=0;sketch=0;strokeWidth=2;" vertex="1" parent="WIyWlLk6GJQsqaUBKTNV-1">
          <mxGeometry x="240" y="270" width="160" height="80" as="geometry" />
        </mxCell>
        <mxCell id="b51wquPNlFclY3lklrmw-23" value="" style="edgeStyle=orthogonalEdgeStyle;rounded=0;orthogonalLoop=1;jettySize=auto;html=1;entryX=0.5;entryY=0;entryDx=0;entryDy=0;" edge="1" parent="WIyWlLk6GJQsqaUBKTNV-1" target="b51wquPNlFclY3lklrmw-25">
          <mxGeometry relative="1" as="geometry">
            <mxPoint x="540" y="150" as="sourcePoint" />
            <mxPoint x="620" y="270" as="targetPoint" />
            <Array as="points">
              <mxPoint x="580" y="150" />
              <mxPoint x="580" y="250" />
              <mxPoint x="520" y="250" />
            </Array>
          </mxGeometry>
        </mxCell>
        <mxCell id="b51wquPNlFclY3lklrmw-26" value="" style="edgeStyle=orthogonalEdgeStyle;rounded=0;orthogonalLoop=1;jettySize=auto;html=1;" edge="1" parent="WIyWlLk6GJQsqaUBKTNV-1" target="b51wquPNlFclY3lklrmw-25">
          <mxGeometry relative="1" as="geometry">
            <mxPoint x="520" y="250" as="sourcePoint" />
          </mxGeometry>
        </mxCell>
        <mxCell id="b51wquPNlFclY3lklrmw-27" value="" style="edgeStyle=orthogonalEdgeStyle;rounded=0;orthogonalLoop=1;jettySize=auto;html=1;" edge="1" parent="WIyWlLk6GJQsqaUBKTNV-1" target="b51wquPNlFclY3lklrmw-25">
          <mxGeometry relative="1" as="geometry">
            <mxPoint x="520" y="250" as="sourcePoint" />
          </mxGeometry>
        </mxCell>
        <mxCell id="b51wquPNlFclY3lklrmw-29" value="" style="edgeStyle=orthogonalEdgeStyle;rounded=0;orthogonalLoop=1;jettySize=auto;html=1;" edge="1" parent="WIyWlLk6GJQsqaUBKTNV-1" target="b51wquPNlFclY3lklrmw-25">
          <mxGeometry relative="1" as="geometry">
            <mxPoint x="520" y="260" as="sourcePoint" />
          </mxGeometry>
        </mxCell>
        <mxCell id="b51wquPNlFclY3lklrmw-25" value="&lt;div&gt;• accès admin&lt;br&gt;&lt;/div&gt;&lt;div&gt;• accès production&lt;/div&gt;" style="ellipse;whiteSpace=wrap;html=1;shadow=0;sketch=0;strokeWidth=2;" vertex="1" parent="WIyWlLk6GJQsqaUBKTNV-1">
          <mxGeometry x="440" y="270" width="160" height="80" as="geometry" />
        </mxCell>
        <mxCell id="b51wquPNlFclY3lklrmw-31" value="" style="shape=umlActor;verticalLabelPosition=bottom;verticalAlign=top;html=1;shadow=0;sketch=0;strokeWidth=2;fillColor=#d5e8d4;strokeColor=#82b366;" vertex="1" parent="WIyWlLk6GJQsqaUBKTNV-1">
          <mxGeometry x="500" y="110" width="40" height="80" as="geometry" />
        </mxCell>
        <mxCell id="b51wquPNlFclY3lklrmw-33" value="" style="shape=umlActor;verticalLabelPosition=bottom;verticalAlign=top;html=1;shadow=0;sketch=0;strokeWidth=2;fillColor=#d5e8d4;strokeColor=#82b366;" vertex="1" parent="WIyWlLk6GJQsqaUBKTNV-1">
          <mxGeometry x="460" y="110" width="40" height="80" as="geometry" />
        </mxCell>
        <mxCell id="b51wquPNlFclY3lklrmw-34" value="Développeurs" style="text;html=1;align=center;verticalAlign=middle;resizable=0;points=[];autosize=1;strokeColor=none;fillColor=none;" vertex="1" parent="WIyWlLk6GJQsqaUBKTNV-1">
          <mxGeometry x="454" y="194" width="90" height="20" as="geometry" />
        </mxCell>
        <mxCell id="b51wquPNlFclY3lklrmw-42" value="" style="edgeStyle=orthogonalEdgeStyle;rounded=0;orthogonalLoop=1;jettySize=auto;html=1;entryX=0.5;entryY=0;entryDx=0;entryDy=0;" edge="1" parent="WIyWlLk6GJQsqaUBKTNV-1" target="b51wquPNlFclY3lklrmw-46">
          <mxGeometry relative="1" as="geometry">
            <mxPoint x="740" y="150" as="sourcePoint" />
            <mxPoint x="820" y="270" as="targetPoint" />
            <Array as="points">
              <mxPoint x="780" y="150" />
              <mxPoint x="780" y="250" />
              <mxPoint x="720" y="250" />
            </Array>
          </mxGeometry>
        </mxCell>
        <mxCell id="b51wquPNlFclY3lklrmw-43" value="" style="edgeStyle=orthogonalEdgeStyle;rounded=0;orthogonalLoop=1;jettySize=auto;html=1;" edge="1" parent="WIyWlLk6GJQsqaUBKTNV-1" target="b51wquPNlFclY3lklrmw-46">
          <mxGeometry relative="1" as="geometry">
            <mxPoint x="720" y="250" as="sourcePoint" />
          </mxGeometry>
        </mxCell>
        <mxCell id="b51wquPNlFclY3lklrmw-44" value="" style="edgeStyle=orthogonalEdgeStyle;rounded=0;orthogonalLoop=1;jettySize=auto;html=1;" edge="1" parent="WIyWlLk6GJQsqaUBKTNV-1" target="b51wquPNlFclY3lklrmw-46">
          <mxGeometry relative="1" as="geometry">
            <mxPoint x="720" y="250" as="sourcePoint" />
          </mxGeometry>
        </mxCell>
        <mxCell id="b51wquPNlFclY3lklrmw-45" value="" style="edgeStyle=orthogonalEdgeStyle;rounded=0;orthogonalLoop=1;jettySize=auto;html=1;" edge="1" parent="WIyWlLk6GJQsqaUBKTNV-1" target="b51wquPNlFclY3lklrmw-46">
          <mxGeometry relative="1" as="geometry">
            <mxPoint x="720" y="260" as="sourcePoint" />
          </mxGeometry>
        </mxCell>
        <mxCell id="b51wquPNlFclY3lklrmw-46" value="• accès production" style="ellipse;whiteSpace=wrap;html=1;shadow=0;sketch=0;strokeWidth=2;" vertex="1" parent="WIyWlLk6GJQsqaUBKTNV-1">
          <mxGeometry x="640" y="270" width="160" height="80" as="geometry" />
        </mxCell>
        <mxCell id="b51wquPNlFclY3lklrmw-47" value="" style="shape=umlActor;verticalLabelPosition=bottom;verticalAlign=top;html=1;shadow=0;sketch=0;strokeWidth=2;fillColor=#dae8fc;strokeColor=#6c8ebf;" vertex="1" parent="WIyWlLk6GJQsqaUBKTNV-1">
          <mxGeometry x="700" y="110" width="40" height="80" as="geometry" />
        </mxCell>
        <mxCell id="b51wquPNlFclY3lklrmw-48" value="" style="shape=umlActor;verticalLabelPosition=bottom;verticalAlign=top;html=1;shadow=0;sketch=0;strokeWidth=2;fillColor=#dae8fc;strokeColor=#6c8ebf;" vertex="1" parent="WIyWlLk6GJQsqaUBKTNV-1">
          <mxGeometry x="660" y="110" width="40" height="80" as="geometry" />
        </mxCell>
        <mxCell id="b51wquPNlFclY3lklrmw-49" value="Testeurs" style="text;html=1;align=center;verticalAlign=middle;resizable=0;points=[];autosize=1;strokeColor=none;fillColor=none;" vertex="1" parent="WIyWlLk6GJQsqaUBKTNV-1">
          <mxGeometry x="670" y="194" width="60" height="20" as="geometry" />
        </mxCell>
        <mxCell id="b51wquPNlFclY3lklrmw-54" value="" style="edgeStyle=elbowEdgeStyle;elbow=vertical;endArrow=classic;html=1;" edge="1" parent="WIyWlLk6GJQsqaUBKTNV-1">
          <mxGeometry width="50" height="50" relative="1" as="geometry">
            <mxPoint x="130" y="100" as="sourcePoint" />
            <mxPoint x="310" y="100" as="targetPoint" />
            <Array as="points">
              <mxPoint x="210" y="60" />
            </Array>
          </mxGeometry>
        </mxCell>
        <mxCell id="b51wquPNlFclY3lklrmw-56" value="&lt;b&gt;DIRIGE&lt;/b&gt;" style="text;html=1;align=center;verticalAlign=middle;resizable=0;points=[];autosize=1;strokeColor=none;fillColor=none;" vertex="1" parent="WIyWlLk6GJQsqaUBKTNV-1">
          <mxGeometry x="190" y="40" width="60" height="20" as="geometry" />
        </mxCell>
        <mxCell id="b51wquPNlFclY3lklrmw-57" value="" style="edgeStyle=elbowEdgeStyle;elbow=vertical;endArrow=classic;html=1;" edge="1" parent="WIyWlLk6GJQsqaUBKTNV-1">
          <mxGeometry width="50" height="50" relative="1" as="geometry">
            <mxPoint x="330" y="100" as="sourcePoint" />
            <mxPoint x="470" y="100" as="targetPoint" />
            <Array as="points">
              <mxPoint x="430" y="60" />
            </Array>
          </mxGeometry>
        </mxCell>
        <mxCell id="b51wquPNlFclY3lklrmw-58" value="&lt;b&gt;DIRIGE&lt;/b&gt;" style="text;html=1;align=center;verticalAlign=middle;resizable=0;points=[];autosize=1;strokeColor=none;fillColor=none;" vertex="1" parent="WIyWlLk6GJQsqaUBKTNV-1">
          <mxGeometry x="370" y="40" width="60" height="20" as="geometry" />
        </mxCell>
        <mxCell id="b51wquPNlFclY3lklrmw-59" value="" style="edgeStyle=elbowEdgeStyle;elbow=vertical;endArrow=classic;html=1;" edge="1" parent="WIyWlLk6GJQsqaUBKTNV-1">
          <mxGeometry width="50" height="50" relative="1" as="geometry">
            <mxPoint x="530" y="100" as="sourcePoint" />
            <mxPoint x="670" y="100" as="targetPoint" />
            <Array as="points">
              <mxPoint x="630" y="60" />
            </Array>
          </mxGeometry>
        </mxCell>
        <mxCell id="b51wquPNlFclY3lklrmw-60" value="&lt;b&gt;DONNE ACCÈS&lt;br&gt;&lt;/b&gt;" style="text;html=1;align=center;verticalAlign=middle;resizable=0;points=[];autosize=1;strokeColor=none;fillColor=none;" vertex="1" parent="WIyWlLk6GJQsqaUBKTNV-1">
          <mxGeometry x="550" y="40" width="100" height="20" as="geometry" />
        </mxCell>
        <mxCell id="b51wquPNlFclY3lklrmw-64" value="" style="edgeStyle=orthogonalEdgeStyle;rounded=0;orthogonalLoop=1;jettySize=auto;html=1;endArrow=none;" edge="1" parent="WIyWlLk6GJQsqaUBKTNV-1">
          <mxGeometry relative="1" as="geometry">
            <mxPoint x="340" y="150" as="sourcePoint" />
            <mxPoint x="380" y="230" as="targetPoint" />
            <Array as="points" />
          </mxGeometry>
        </mxCell>
      </root>
    </mxGraphModel>
  </diagram>
</mxfile>
